<?xml version="1.0" encoding="UTF-8"?><!DOCTYPE svg PUBLIC "-//W3C//DTD SVG 1.1//EN" "http://www.w3.org/Graphics/SVG/1.1/DTD/svg11.dtd"><svg xmlns="http://www.w3.org/2000/svg"><symbol id="ico-add" viewBox="0 0 60 60">
    <path d="M0 0v60h60V0H0zm58 58H2V2h56v56z"/>
    <path d="M29 51h2V31h20v-2H31V9h-2v20H9v2h20z"/>
</symbol><symbol id="ico-clock" viewBox="0 0 60 60">
    <path d="M30 0C13.458 0 0 13.458 0 30s13.458 30 30 30 30-13.458 30-30S46.542 0 30 0zm0 58C14.561 58 2 45.439 2 30S14.561 2 30 2s28 12.561 28 28-12.561 28-28 28z"/>
    <path d="M31 26.021V15.879a1 1 0 1 0-2 0v10.142a3.995 3.995 0 0 0-2.858 2.858H19a1 1 0 1 0 0 2h7.142c.447 1.72 2 3 3.858 3 2.206 0 4-1.794 4-4 0-1.859-1.28-3.411-3-3.858zm-1 5.858c-1.103 0-2-.897-2-2s.897-2 2-2 2 .897 2 2-.897 2-2 2z"/>
    <path d="M30 9.879a1 1 0 0 0 1-1v-1a1 1 0 1 0-2 0v1a1 1 0 0 0 1 1z"/>
    <path d="M30 49.879a1 1 0 0 0-1 1v1a1 1 0 1 0 2 0v-1a1 1 0 0 0-1-1z"/>
    <path d="M52 28.879h-1a1 1 0 1 0 0 2h1a1 1 0 1 0 0-2z"/>
    <path d="M9 28.879H8a1 1 0 1 0 0 2h1a1 1 0 1 0 0-2z"/>
    <path d="M44.849 13.615l-.707.707a.999.999 0 1 0 1.414 1.414l.707-.707a.999.999 0 1 0-1.414-1.414z"/>
    <path d="M14.444 44.021l-.707.707a.999.999 0 1 0 1.414 1.414l.707-.707a.999.999 0 1 0-1.414-1.414z"/>
    <path d="M45.556 44.021a.999.999 0 1 0-1.414 1.414l.707.707a.997.997 0 0 0 1.414 0 .999.999 0 0 0 0-1.414l-.707-.707z"/>
    <path d="M15.151 13.615a.999.999 0 1 0-1.414 1.414l.707.707a.997.997 0 0 0 1.414 0 .999.999 0 0 0 0-1.414l-.707-.707z"/>
</symbol><symbol id="ico-facebook-logo" viewBox="0 0 96.124 96.123">
    <path d="M72.089.02L59.624 0C45.62 0 36.57 9.285 36.57 23.656v10.907H24.037a1.96 1.96 0 0 0-1.96 1.961v15.803a1.96 1.96 0 0 0 1.96 1.96H36.57v39.876a1.96 1.96 0 0 0 1.96 1.96h16.352a1.96 1.96 0 0 0 1.96-1.96V54.287h14.654a1.96 1.96 0 0 0 1.96-1.96l.006-15.803a1.963 1.963 0 0 0-1.961-1.961H56.842v-9.246c0-4.444 1.059-6.7 6.848-6.7l8.397-.003a1.96 1.96 0 0 0 1.959-1.96V1.98A1.96 1.96 0 0 0 72.089.02z"/>
</symbol><symbol id="ico-google-plus" viewBox="0 0 512 512">
    <path d="M448 224v-64h-32v64h-64v32h64v64h32v-64h64v-32z"/>
    <path d="M160 224v64h90.528c-13.216 37.248-48.8 64-90.528 64-52.928 0-96-43.072-96-96s43.072-96 96-96c22.944 0 45.024 8.224 62.176 23.168l42.048-48.256C235.424 109.824 198.432 96 160 96 71.776 96 0 167.776 0 256s71.776 160 160 160 160-71.776 160-160v-32H160z"/>
</symbol><symbol id="ico-instagram-logo" viewBox="0 0 169.063 169.063">
    <path d="M122.406 0H46.654C20.929 0 0 20.93 0 46.655v75.752c0 25.726 20.929 46.655 46.654 46.655h75.752c25.727 0 46.656-20.93 46.656-46.655V46.655C169.063 20.93 148.133 0 122.406 0zm31.657 122.407c0 17.455-14.201 31.655-31.656 31.655H46.654C29.2 154.063 15 139.862 15 122.407V46.655C15 29.201 29.2 15 46.654 15h75.752c17.455 0 31.656 14.201 31.656 31.655v75.752z"/>
    <path d="M84.531 40.97c-24.021 0-43.563 19.542-43.563 43.563 0 24.02 19.542 43.561 43.563 43.561s43.563-19.541 43.563-43.561c0-24.021-19.542-43.563-43.563-43.563zm0 72.123c-15.749 0-28.563-12.812-28.563-28.561 0-15.75 12.813-28.563 28.563-28.563s28.563 12.813 28.563 28.563c0 15.749-12.814 28.561-28.563 28.561z"/>
    <path d="M129.921 28.251c-2.89 0-5.729 1.17-7.77 3.22a11.053 11.053 0 0 0-3.23 7.78c0 2.891 1.18 5.73 3.23 7.78 2.04 2.04 4.88 3.22 7.77 3.22 2.9 0 5.73-1.18 7.78-3.22 2.05-2.05 3.22-4.89 3.22-7.78 0-2.9-1.17-5.74-3.22-7.78-2.04-2.05-4.88-3.22-7.78-3.22z"/>
</symbol><symbol id="ico-linkedin" viewBox="0 0 512 512">
    <path d="M0 160h114.496v352H0z"/>
    <path d="M426.368 164.128c-1.216-.384-2.368-.8-3.648-1.152a74.218 74.218 0 0 0-4.64-.896c-6.08-1.216-12.736-2.08-20.544-2.08-66.752 0-109.088 48.544-123.04 67.296V160H160v352h114.496V320s86.528-120.512 123.04-32v224H512V274.464c0-53.184-36.448-97.504-85.632-110.336z"/>
    <circle cx="56" cy="56" r="56"/>
</symbol><symbol id="ico-menu" viewBox="0 0 50 50">
    <path d="M0 3h50v2H0z"/>
    <path d="M0 17h50v2H0z"/>
    <path d="M0 31h50v2H0z"/>
    <path d="M0 45h50v2H0z"/>
</symbol><symbol id="ico-placeholder" viewBox="0 0 60 60">
    <path d="M30 26c3.86 0 7-3.141 7-7s-3.14-7-7-7-7 3.141-7 7 3.14 7 7 7zm0-12c2.757 0 5 2.243 5 5s-2.243 5-5 5-5-2.243-5-5 2.243-5 5-5z"/>
    <path d="M29.823 54.757L45.164 32.6c5.754-7.671 4.922-20.28-1.781-26.982C39.761 1.995 34.945 0 29.823 0s-9.938 1.995-13.56 5.617c-6.703 6.702-7.535 19.311-1.804 26.952l15.364 22.188zM17.677 7.031C20.922 3.787 25.235 2 29.823 2s8.901 1.787 12.146 5.031c6.05 6.049 6.795 17.437 1.573 24.399L29.823 51.243 16.082 31.4c-5.2-6.932-4.454-18.32 1.595-24.369z"/>
    <path d="M42.117 43.007a1 1 0 0 0-.234 1.986C52.399 46.231 58 49.567 58 51.5c0 2.714-10.652 6.5-28 6.5S2 54.214 2 51.5c0-1.933 5.601-5.269 16.117-6.507a1 1 0 0 0-.234-1.986C7.354 44.247 0 47.739 0 51.5 0 55.724 10.305 60 30 60s30-4.276 30-8.5c0-3.761-7.354-7.253-17.883-8.493z"/>
</symbol><symbol id="ico-right-arrow" viewBox="0 0 31.49 31.49">
    <path d="M21.205 5.007a1.112 1.112 0 0 0-1.587 0 1.12 1.12 0 0 0 0 1.571l8.047 8.047H1.111A1.106 1.106 0 0 0 0 15.737c0 .619.492 1.127 1.111 1.127h26.554l-8.047 8.032c-.429.444-.429 1.159 0 1.587a1.112 1.112 0 0 0 1.587 0l9.952-9.952a1.093 1.093 0 0 0 0-1.571l-9.952-9.953z"/>
</symbol><symbol id="ico-skype-logo" viewBox="0 0 430.123 430.123">
    <path d="M412.164 246.198a199.284 199.284 0 0 0 2.45-31.148c0-110.215-89.342-199.555-199.56-199.555-10.576 0-20.995.871-31.141 2.458C165.534 6.581 143.842 0 120.595 0 53.996 0 .005 53.984.005 120.59c0 23.242 6.585 44.916 17.952 63.332-1.573 10.172-2.439 20.528-2.439 31.132 0 110.223 89.34 199.536 199.532 199.536 10.585 0 21.007-.816 31.152-2.417 18.398 11.35 40.072 17.949 63.314 17.949 66.617 0 120.602-53.998 120.602-120.602.005-23.251-6.576-44.92-17.954-63.322zM309.801 305.81c-8.442 12.153-20.843 21.65-37.047 28.479-16.237 6.847-35.428 10.254-57.59 10.254-26.562 0-48.554-4.648-65.913-14.034-12.305-6.721-22.313-15.737-30.007-26.98-7.71-11.252-11.619-22.271-11.619-33.015 0-6.338 2.417-11.85 7.122-16.344 4.754-4.527 10.877-6.796 18.104-6.796 5.92 0 11.005 1.783 15.145 5.316 4.109 3.532 7.556 8.667 10.375 15.443 3.379 7.85 7.049 14.412 10.954 19.648 3.881 5.171 9.343 9.488 16.417 12.867 6.996 3.388 16.307 5.082 27.958 5.082 15.945 0 28.831-3.449 38.693-10.253 9.912-6.866 14.673-15.22 14.673-25.314 0-8.051-2.567-14.445-7.831-19.43-5.312-5.05-12.172-8.896-20.685-11.579-8.546-2.711-20.02-5.586-34.399-8.615-19.308-4.214-35.456-9.119-48.533-14.752-13.094-5.654-23.522-13.383-31.251-23.146-7.745-9.859-11.607-22.113-11.607-36.627 0-13.84 4.077-26.217 12.239-36.989 8.158-10.802 19.961-19.07 35.351-24.829 15.336-5.757 33.391-8.637 54.075-8.637 16.541 0 30.849 1.914 42.96 5.722 12.078 3.836 22.146 8.898 30.196 15.25 7.999 6.338 13.885 13.023 17.613 20.038 3.725 7.036 5.601 13.908 5.601 20.614 0 6.235-2.417 11.89-7.127 16.846-4.709 4.963-10.733 7.493-17.768 7.47-6.342 0-11.317-1.463-14.767-4.56-3.36-2.996-6.889-7.766-10.706-14.414-4.825-9.276-10.604-16.503-17.324-21.672-6.543-5.073-17.338-7.714-32.359-7.682-13.898 0-25.018 2.84-33.411 8.394-8.445 5.643-12.482 12.19-12.501 19.861.014 4.807 1.396 8.86 4.177 12.326 2.824 3.498 6.753 6.529 11.803 9.084a81.825 81.825 0 0 0 15.355 6.046c5.225 1.481 13.894 3.622 25.944 6.457 15.112 3.257 28.819 6.896 41.136 10.862 12.293 3.986 22.784 8.793 31.451 14.52 8.736 5.71 15.564 12.99 20.438 21.783 4.909 8.807 7.354 19.564 7.354 32.222.019 15.242-4.227 28.95-12.689 41.084z"/>
</symbol><symbol id="ico-smartphone" viewBox="0 0 60 60">
    <path d="M42.595 0h-25.19A4.411 4.411 0 0 0 13 4.405v51.189A4.411 4.411 0 0 0 17.405 60h25.189A4.411 4.411 0 0 0 47 55.595V4.405A4.411 4.411 0 0 0 42.595 0zM15 8h30v38H15V8zm2.405-6h25.189A2.408 2.408 0 0 1 45 4.405V6H15V4.405A2.408 2.408 0 0 1 17.405 2zm25.19 56h-25.19A2.408 2.408 0 0 1 15 55.595V48h30v7.595A2.408 2.408 0 0 1 42.595 58z"/>
    <path d="M30 49c-2.206 0-4 1.794-4 4s1.794 4 4 4 4-1.794 4-4-1.794-4-4-4zm0 6c-1.103 0-2-.897-2-2s.897-2 2-2 2 .897 2 2-.897 2-2 2z"/>
    <path d="M26 5h4a1 1 0 1 0 0-2h-4a1 1 0 1 0 0 2z"/>
    <path d="M33 5h1a1 1 0 1 0 0-2h-1a1 1 0 1 0 0 2z"/>
    <path d="M56.612 4.569a.999.999 0 1 0-1.414 1.414c3.736 3.736 3.736 9.815 0 13.552a.999.999 0 1 0 1.414 1.414c4.516-4.515 4.516-11.864 0-16.38z"/>
    <path d="M52.401 6.845a.999.999 0 1 0-1.414 1.414c1.237 1.237 1.918 2.885 1.918 4.639s-.681 3.401-1.918 4.638a.999.999 0 1 0 1.414 1.414c1.615-1.614 2.504-3.764 2.504-6.052s-.888-4.439-2.504-6.053z"/>
    <path d="M4.802 5.983a.999.999 0 1 0-1.414-1.414c-4.516 4.516-4.516 11.864 0 16.38a.997.997 0 0 0 1.414 0 .999.999 0 0 0 0-1.414c-3.737-3.736-3.737-9.815 0-13.552z"/>
    <path d="M9.013 6.569a.999.999 0 0 0-1.414 0c-1.615 1.614-2.504 3.764-2.504 6.052s.889 4.438 2.504 6.053a.997.997 0 0 0 1.414 0 .999.999 0 0 0 0-1.414c-1.237-1.237-1.918-2.885-1.918-4.639s.68-3.401 1.918-4.638a1 1 0 0 0 0-1.414z"/>
</symbol><symbol id="ico-twitter" viewBox="0 0 97.073 97.073">
    <path d="M96.771 28.015a1.998 1.998 0 0 0-2.259-.861c-1.603.469-3.637.895-6.047 1.266 2.232-1.142 4.011-2.364 5.28-3.635a2 2 0 0 0-2.26-3.225c-2.331 1.091-4.868 1.651-7.542 1.667-4.556-9.77-12.692-13.387-13.005-13.522-4.966-2.253-9.696-2.929-13.926-1.99-11.329 2.517-16.511 15.99-14.816 27.031-3.011-.208-19.053-1.823-39.209-13.267A2.003 2.003 0 0 0 0 23.256c.235 11.954 11.155 17.66 15.838 19.558-.99.102-2.515.124-3.994.062a2 2 0 0 0-1.188 3.663c3.279 2.185 6.566 3.617 9.77 4.261a58.94 58.94 0 0 1-2.117.103 2 2 0 0 0-.94 3.728c2.998 1.741 7.652 3.817 12.814 3.817l.372-.004h-.001a14.73 14.73 0 0 1-1.903.549c-.212.047-.425.091-.637.13a2.001 2.001 0 0 0-.229 3.874c3.797 1.188 7.34 1.463 10.351.793.567-.126 1.127-.29 1.66-.484h.001c-.081 3.068-1.695 13.383-19.041 17.236l-.226.048c-1.088.242-3.392.524-6.305.524-1.2 0-2.403-.047-3.578-.139a1.99 1.99 0 0 0-2.091 1.487 1.999 1.999 0 0 0 1.095 2.321c6.643 3.073 13.941 4.75 21.694 4.983l.061.001a57.04 57.04 0 0 0 12.354-1.353c7.41-1.646 14.61-4.807 21.398-9.395l.003-.001c.149-.058.292-.132.424-.224C75.247 72.128 82.356 62.8 86.71 51.067c.016-.04.028-.081.041-.122 1.762-5.874 2.371-11.186 1.814-15.788 3.432-1.105 6.117-2.701 7.983-4.741a1.99 1.99 0 0 0 .223-2.401z"/>
</symbol><symbol id="ico-youtube" viewBox="0 0 512 512">
    <path d="M490.24 113.92c-13.888-24.704-28.96-29.248-59.648-30.976C399.936 80.864 322.848 80 256.064 80c-66.912 0-144.032.864-174.656 2.912-30.624 1.76-45.728 6.272-59.744 31.008C7.36 138.592 0 181.088 0 255.904v.256c0 74.496 7.36 117.312 21.664 141.728 14.016 24.704 29.088 29.184 59.712 31.264C112.032 430.944 189.152 432 256.064 432c66.784 0 143.872-1.056 174.56-2.816 30.688-2.08 45.76-6.56 59.648-31.264C504.704 373.504 512 330.688 512 256.192v-.16-.096c0-74.848-7.296-117.344-21.76-142.016zM192 352V160l160 96-160 96z"/>
</symbol></svg>